<svg width="53" height="34" viewBox="0 0 53 34" fill="none" xmlns="http://www.w3.org/2000/svg">
    <rect width="53" height="34" rx="5" fill="#EBECF5" fill-opacity="0.65"/>
    <path fill-rule="evenodd" clip-rule="evenodd" d="M20.867 24.8495V25.9063V26.963H20.4049V26.7064C20.2584 26.8967 20.036 27.0161 19.7337 27.0161C19.1378 27.0161 18.6707 26.552 18.6707 25.9063C18.6707 25.261 19.1378 24.7964 19.7337 24.7964C20.036 24.7964 20.2584 24.9158 20.4049 25.1061V24.8495H20.867ZM19.7912 25.2296C19.3912 25.2296 19.1465 25.5348 19.1465 25.9062C19.1465 26.2777 19.3912 26.5829 19.7912 26.5829C20.1734 26.5829 20.4314 26.2909 20.4314 25.9062C20.4314 25.5216 20.1734 25.2296 19.7912 25.2296ZM36.4816 25.9062C36.4816 25.5348 36.7264 25.2296 37.1264 25.2296C37.5091 25.2296 37.7666 25.5216 37.7666 25.9062C37.7666 26.2909 37.5091 26.5829 37.1264 26.5829C36.7264 26.5829 36.4816 26.2777 36.4816 25.9062ZM38.2027 24.0008V25.9063V26.963H37.7401V26.7064C37.5935 26.8967 37.3712 27.0161 37.0689 27.0161C36.473 27.0161 36.0058 26.552 36.0058 25.9063C36.0058 25.261 36.473 24.7964 37.0689 24.7964C37.3712 24.7964 37.5935 24.9158 37.7401 25.1061V24.0008H38.2027ZM26.6026 25.2078C26.9003 25.2078 27.0917 25.3936 27.1405 25.7205H26.0378C26.0872 25.4153 26.2734 25.2078 26.6026 25.2078ZM25.5533 25.9063C25.5533 25.2473 25.9889 24.7964 26.6118 24.7964C27.2072 24.7964 27.6163 25.2473 27.6209 25.9063C27.6209 25.968 27.6163 26.0257 27.6118 26.0829H26.0337C26.1004 26.4635 26.3716 26.6006 26.6693 26.6006C26.8825 26.6006 27.1095 26.5206 27.2876 26.3794L27.5141 26.72C27.2561 26.9367 26.9629 27.0161 26.6428 27.0161C26.0067 27.0161 25.5533 26.5783 25.5533 25.9063ZM32.1912 25.9062C32.1912 25.5348 32.436 25.2296 32.836 25.2296C33.2182 25.2296 33.4762 25.5216 33.4762 25.9062C33.4762 26.2909 33.2182 26.5829 32.836 26.5829C32.436 26.5829 32.1912 26.2777 32.1912 25.9062ZM33.9118 24.8495V25.9063V26.963H33.4497V26.7064C33.3026 26.8967 33.0808 27.0161 32.7785 27.0161C32.1826 27.0161 31.7154 26.552 31.7154 25.9063C31.7154 25.261 32.1826 24.7964 32.7785 24.7964C33.0808 24.7964 33.3026 24.9158 33.4497 25.1061V24.8495H33.9118ZM29.5816 25.9063C29.5816 26.5475 30.0305 27.0161 30.7154 27.0161C31.0355 27.0161 31.2487 26.9453 31.4798 26.7641L31.2579 26.3926C31.0844 26.5166 30.9022 26.5829 30.7017 26.5829C30.3327 26.5783 30.0615 26.3131 30.0615 25.9063C30.0615 25.4994 30.3327 25.2342 30.7017 25.2296C30.9022 25.2296 31.0844 25.2959 31.2579 25.4199L31.4798 25.0484C31.2487 24.8672 31.0355 24.7964 30.7154 24.7964C30.0305 24.7964 29.5816 25.265 29.5816 25.9063ZM34.9788 25.1061C35.0989 24.9204 35.2724 24.7964 35.5391 24.7964C35.6327 24.7964 35.7661 24.8141 35.8684 24.8541L35.7259 25.2873C35.6282 25.2473 35.5305 25.2342 35.4368 25.2342C35.1345 25.2342 34.9834 25.4285 34.9834 25.7782V26.963H34.5208V24.8495H34.9788V25.1061ZM23.1524 25.0176C22.93 24.8718 22.6236 24.7964 22.2857 24.7964C21.7473 24.7964 21.4008 25.053 21.4008 25.473C21.4008 25.8177 21.6588 26.0302 22.1341 26.0965L22.3524 26.1274C22.6058 26.1628 22.7254 26.2291 22.7254 26.3486C22.7254 26.512 22.5565 26.6052 22.241 26.6052C21.9209 26.6052 21.6898 26.5034 21.5341 26.384L21.3163 26.7418C21.5697 26.9275 21.8898 27.0161 22.2364 27.0161C22.8501 27.0161 23.2058 26.7287 23.2058 26.3263C23.2058 25.9548 22.9259 25.7605 22.4633 25.6942L22.2455 25.6628C22.0456 25.6365 21.8853 25.597 21.8853 25.4553C21.8853 25.3005 22.0364 25.2078 22.2898 25.2078C22.5611 25.2078 22.8236 25.3096 22.9524 25.389L23.1524 25.0176ZM28.5547 25.1061C28.6743 24.9204 28.8478 24.7964 29.1145 24.7964C29.2081 24.7964 29.3415 24.8141 29.4438 24.8541L29.3013 25.2873C29.2036 25.2473 29.1059 25.2342 29.0122 25.2342C28.7099 25.2342 28.5588 25.4285 28.5588 25.7782V26.963H28.0967V24.8495H28.5547V25.1061ZM25.1711 24.8495H24.4154V24.2083H23.9482V24.8495H23.5172V25.2696H23.9482V26.2337C23.9482 26.7241 24.1396 27.0161 24.6861 27.0161C24.8866 27.0161 25.1176 26.9544 25.2642 26.8526L25.1309 26.4589C24.993 26.5384 24.8418 26.5783 24.7217 26.5783C24.4907 26.5783 24.4154 26.4366 24.4154 26.2246V25.2696H25.1711V24.8495ZM18.262 25.6365V26.963H17.7948V25.7868C17.7948 25.4285 17.6437 25.2296 17.3282 25.2296C17.0213 25.2296 16.8081 25.4245 16.8081 25.7914V26.963H16.341V25.7868C16.341 25.4285 16.1858 25.2296 15.8789 25.2296C15.5629 25.2296 15.3583 25.4245 15.3583 25.7914V26.963H14.8917V24.8495H15.3542V25.1102C15.5278 24.8627 15.7496 24.7964 15.9766 24.7964C16.3013 24.7964 16.5323 24.9381 16.6789 25.1724C16.8748 24.8759 17.1547 24.7918 17.4259 24.7964C17.9419 24.8009 18.262 25.137 18.262 25.6365Z" fill="#231F20"/>
    <path d="M30.0025 21.2584H22.9992V8.7417H30.0025V21.2584Z" fill="#FF5F00"/>
    <path d="M23.4435 15.0004C23.4435 12.4613 24.6389 10.1996 26.5004 8.74203C25.1391 7.6762 23.4211 7.04005 21.554 7.04005C17.1338 7.04005 13.5508 10.6039 13.5508 15.0004C13.5508 19.3968 17.1338 22.9607 21.554 22.9607C23.4211 22.9607 25.1391 22.3245 26.5004 21.2587C24.6389 19.8012 23.4435 17.5394 23.4435 15.0004Z" fill="#EB001B"/>
    <path d="M39.4505 15.0004C39.4505 19.3968 35.8674 22.9607 31.4472 22.9607C29.5801 22.9607 27.8621 22.3245 26.5004 21.2587C28.3624 19.8012 29.5577 17.5394 29.5577 15.0004C29.5577 12.4613 28.3624 10.1996 26.5004 8.74203C27.8621 7.6762 29.5801 7.04005 31.4472 7.04005C35.8674 7.04005 39.4505 10.6039 39.4505 15.0004Z" fill="#F79E1B"/>
</svg>